<svg xmlns="http://www.w3.org/2000/svg" width="357.48" height="90.247" viewBox="-3 -3 363 96"><g id="deeditor_bgCarrier" stroke-width="0">
    <rect id="dee_c_e" x="-3" y="-3" width="363" height="96" rx="0" fill="#ffffff" strokewidth="0"/>
  </g><g id="svgGroup" stroke-linecap="round" fill-rule="nonzero" font-size="9pt" stroke="#000000" stroke-width="0.5" fill="#000000" style="stroke:#000000;stroke-width:0.5;fill:#000000"><path d="M 0 81.72 L 5.76 72.12 Q 10.08 75.72 15.48 78 A 32.039 32.039 0 0 0 27.855 80.279 A 45.228 45.228 0 0 0 28.08 80.28 A 27.612 27.612 0 0 0 38.016 78.674 A 16.817 16.817 0 0 0 41.76 76.68 Q 46.8 73.08 46.8 66.96 Q 46.8 63.48 45.36 60.78 A 13.587 13.587 0 0 0 41.008 56.309 A 27.919 27.919 0 0 0 39.78 55.5 A 50.212 50.212 0 0 0 33.489 52.288 A 114.301 114.301 0 0 0 27.6 49.92 A 92.51 92.51 0 0 1 18.159 45.697 A 50.056 50.056 0 0 1 13.8 43.14 Q 8.64 39.72 6.42 35.34 Q 4.2 30.96 4.2 24.96 Q 4.2 18.96 7.5 14.1 Q 10.8 9.24 17.22 6.3 Q 23.64 3.36 32.76 3.36 Q 40.2 3.36 46.14 4.86 Q 52.08 6.36 57.72 9.12 L 53.52 18.84 Q 49.44 16.44 43.98 14.82 Q 38.52 13.2 32.52 13.2 A 26.124 26.124 0 0 0 23.24 14.666 A 15.254 15.254 0 0 0 20.04 16.32 Q 15.48 19.44 15.48 24.36 Q 15.48 27.48 16.8 29.88 A 12.167 12.167 0 0 0 20.974 33.916 A 26.213 26.213 0 0 0 22.02 34.56 A 53.8 53.8 0 0 0 28.026 37.479 A 130.05 130.05 0 0 0 33.72 39.72 A 83.026 83.026 0 0 1 43.883 44.203 A 44.984 44.984 0 0 1 48.54 47.04 A 24.871 24.871 0 0 1 55.618 54.196 A 16.833 16.833 0 0 1 56.28 55.38 Q 58.56 59.88 58.56 65.64 Q 58.56 73.44 54.66 78.96 Q 50.76 84.48 43.86 87.36 A 40.315 40.315 0 0 1 28.633 90.237 A 54.194 54.194 0 0 1 28.08 90.24 Q 19.32 90.24 12.12 87.9 A 39.304 39.304 0 0 1 0.077 81.78 A 30.171 30.171 0 0 1 0 81.72 Z M 110.16 90.24 Q 100.8 90.24 93.48 86.82 Q 86.16 83.4 81.06 77.46 Q 75.96 71.52 73.26 63.6 Q 70.56 55.68 70.56 46.68 A 51.064 51.064 0 0 1 74.386 26.553 A 44.028 44.028 0 0 1 75.3 24.54 Q 80.04 14.76 88.92 9.06 A 37.346 37.346 0 0 1 107.498 3.428 A 51.221 51.221 0 0 1 110.16 3.36 Q 119.4 3.36 126.78 6.72 Q 134.16 10.08 139.32 16.08 Q 144.48 22.08 147.18 29.88 Q 149.88 37.68 149.88 46.68 Q 149.88 55.68 147.18 63.6 Q 144.48 71.52 139.32 77.46 Q 134.16 83.4 126.84 86.82 Q 119.52 90.24 110.16 90.24 Z M 110.16 80.4 A 27.309 27.309 0 0 0 123.406 77.355 A 21.94 21.94 0 0 0 125.64 75.96 Q 131.88 71.52 135.06 63.9 A 44.173 44.173 0 0 0 138.239 46.98 A 57.681 57.681 0 0 0 138.24 46.68 Q 138.24 40.2 136.32 34.2 Q 134.4 28.2 130.8 23.46 Q 127.2 18.72 121.98 15.96 Q 116.76 13.2 110.16 13.2 Q 101.4 13.2 95.1 17.64 Q 88.8 22.08 85.5 29.64 Q 82.2 37.2 82.2 46.68 Q 82.2 53.16 84.06 59.22 Q 85.92 65.28 89.52 70.08 A 26.245 26.245 0 0 0 98.34 77.64 Q 103.56 80.4 110.16 80.4 Z M 208.56 28.68 L 205.32 37.8 Q 201.96 36.12 198.9 35.34 Q 195.84 34.56 192.12 34.56 Q 183.72 34.56 178.02 40.62 A 21.641 21.641 0 0 0 172.52 53.517 A 35.504 35.504 0 0 0 172.32 57.36 Q 172.32 63.84 174.72 69.12 Q 177.12 74.4 181.38 77.52 Q 185.64 80.64 191.4 80.64 Q 195.96 80.64 199.2 79.62 Q 202.44 78.6 206.16 76.68 L 209.52 85.8 Q 205.8 87.84 201.18 89.04 Q 196.56 90.24 190.68 90.24 Q 181.8 90.24 175.14 86.1 Q 168.48 81.96 164.88 74.58 A 37.954 37.954 0 0 1 161.284 58.198 A 50.65 50.65 0 0 1 161.28 57.6 Q 161.28 48.6 164.94 41.16 Q 168.6 33.72 175.44 29.34 Q 182.28 24.96 191.52 24.96 Q 196.8 24.96 200.82 25.92 Q 204.84 26.88 208.56 28.68 Z M 294.84 31.44 L 294.84 26.4 L 304.68 26.4 L 304.68 73.68 Q 304.68 78.24 306.9 79.62 Q 309.12 81 311.76 81 L 309.48 89.4 A 17.316 17.316 0 0 1 301.146 87.608 A 11.34 11.34 0 0 1 295.56 80.04 Q 292.8 83.88 288.06 87.06 A 20.403 20.403 0 0 1 277.35 90.212 A 32.079 32.079 0 0 1 276 90.24 Q 268.2 90.24 261.84 86.28 Q 255.48 82.32 251.7 75.06 A 35.53 35.53 0 0 1 247.953 59.782 A 49.391 49.391 0 0 1 247.92 57.96 Q 247.92 48.6 251.7 41.16 Q 255.48 33.72 262.14 29.34 A 26.654 26.654 0 0 1 262.558 29.071 A 27.285 27.285 0 0 1 277.44 24.96 Q 282.84 24.96 287.22 26.82 Q 291.6 28.68 294.84 31.44 Z M 293.88 72.84 L 293.88 39.36 Q 290.64 37.08 286.74 35.7 Q 282.84 34.32 278.52 34.32 Q 272.76 34.32 268.38 37.26 Q 264 40.2 261.48 45.42 Q 258.96 50.64 258.96 57.6 Q 258.96 64.32 261.48 69.54 Q 264 74.76 268.44 77.7 Q 272.88 80.64 278.4 80.64 Q 282.96 80.64 287.04 78.42 Q 291.12 76.2 293.88 72.84 Z M 325.56 69.24 L 325.56 0 L 336.36 0 L 336.36 68.16 A 18.154 18.154 0 0 0 337.622 75.449 A 9.141 9.141 0 0 0 339.06 77.76 Q 341.76 80.88 346.56 80.88 Q 348.84 80.88 351.06 80.34 Q 353.28 79.8 354.84 79.08 L 357.48 87.84 Q 355.32 88.8 352.14 89.52 Q 348.96 90.24 345.12 90.24 Q 339.6 90.24 335.16 88.14 Q 330.72 86.04 328.14 81.36 A 22.669 22.669 0 0 1 325.651 71.933 A 38.652 38.652 0 0 1 325.56 69.24 Z M 232.92 88.8 L 222.12 88.8 L 222.12 26.4 L 232.92 26.4 L 232.92 88.8 Z M 227.52 15.72 Q 224.4 15.72 222.18 13.44 Q 219.96 11.16 219.96 8.16 Q 219.96 4.68 222 2.64 Q 224.04 0.6 227.52 0.6 Q 230.64 0.6 232.86 2.82 Q 235.08 5.04 235.08 8.16 Q 235.08 11.52 233.04 13.62 Q 231 15.72 227.52 15.72 Z" fill="#000000"/></g></svg>