<svg xmlns="http://www.w3.org/2000/svg" width="357.48" height="90.247" xmlns:v="https://vecta.io/nano"><path d="M0 81.72l5.76-9.6q4.32 3.6 9.72 5.88a32.039 32.039 0 0 0 12.375 2.279 45.228 45.228 0 0 0 .225.001 27.612 27.612 0 0 0 9.936-1.606 16.817 16.817 0 0 0 3.744-1.994q5.04-3.6 5.04-9.72 0-3.48-1.44-6.18a13.587 13.587 0 0 0-4.352-4.471 27.919 27.919 0 0 0-1.228-.809 50.212 50.212 0 0 0-6.291-3.212A114.301 114.301 0 0 0 27.6 49.92a92.51 92.51 0 0 1-9.441-4.223A50.056 50.056 0 0 1 13.8 43.14q-5.16-3.42-7.38-7.8Q4.2 30.96 4.2 24.96q0-6 3.3-10.86 3.3-4.86 9.72-7.8 6.42-2.94 15.54-2.94 7.44 0 13.38 1.5 5.94 1.5 11.58 4.26l-4.2 9.72q-4.08-2.4-9.54-4.02-5.46-1.62-11.46-1.62a26.124 26.124 0 0 0-9.28 1.466 15.254 15.254 0 0 0-3.2 1.654q-4.56 3.12-4.56 8.04 0 3.12 1.32 5.52a12.167 12.167 0 0 0 4.174 4.036 26.213 26.213 0 0 0 1.046.644 53.8 53.8 0 0 0 6.006 2.919 130.05 130.05 0 0 0 5.694 2.241 83.026 83.026 0 0 1 10.163 4.483 44.984 44.984 0 0 1 4.657 2.837 24.871 24.871 0 0 1 7.078 7.156 16.833 16.833 0 0 1 .662 1.184q2.28 4.5 2.28 10.26 0 7.8-3.9 13.32-3.9 5.52-10.8 8.4a40.315 40.315 0 0 1-15.227 2.877 54.194 54.194 0 0 1-.553.003q-8.76 0-15.96-2.34A39.304 39.304 0 0 1 .077 81.78 30.171 30.171 0 0 1 0 81.72zm110.16 8.52q-9.36 0-16.68-3.42-7.32-3.42-12.42-9.36-5.1-5.94-7.8-13.86-2.7-7.92-2.7-16.92a51.064 51.064 0 0 1 3.826-20.127 44.028 44.028 0 0 1 .914-2.013q4.74-9.78 13.62-15.48a37.346 37.346 0 0 1 18.578-5.632 51.221 51.221 0 0 1 2.662-.068q9.24 0 16.62 3.36 7.38 3.36 12.54 9.36 5.16 6 7.86 13.8 2.7 7.8 2.7 16.8 0 9-2.7 16.92-2.7 7.92-7.86 13.86-5.16 5.94-12.48 9.36-7.32 3.42-16.68 3.42zm0-9.84a27.309 27.309 0 0 0 13.246-3.045 21.94 21.94 0 0 0 2.234-1.395q6.24-4.44 9.42-12.06a44.173 44.173 0 0 0 3.179-16.92 57.681 57.681 0 0 0 .001-.3q0-6.48-1.92-12.48-1.92-6-5.52-10.74-3.6-4.74-8.82-7.5-5.22-2.76-11.82-2.76-8.76 0-15.06 4.44-6.3 4.44-9.6 12-3.3 7.56-3.3 17.04 0 6.48 1.86 12.54 1.86 6.06 5.46 10.86a26.245 26.245 0 0 0 8.82 7.56q5.22 2.76 11.82 2.76zm98.4-51.72l-3.24 9.12q-3.36-1.68-6.42-2.46-3.06-.78-6.78-.78-8.4 0-14.1 6.06a21.641 21.641 0 0 0-5.5 12.897 35.504 35.504 0 0 0-.2 3.843q0 6.48 2.4 11.76 2.4 5.28 6.66 8.4 4.26 3.12 10.02 3.12 4.56 0 7.8-1.02 3.24-1.02 6.96-2.94l3.36 9.12q-3.72 2.04-8.34 3.24-4.62 1.2-10.5 1.2-8.88 0-15.54-4.14-6.66-4.14-10.26-11.52a37.954 37.954 0 0 1-3.596-16.382 50.65 50.65 0 0 1-.004-.598q0-9 3.66-16.44 3.66-7.44 10.5-11.82 6.84-4.38 16.08-4.38 5.28 0 9.3.96 4.02.96 7.74 2.76zm86.28 2.76V26.4h9.84v47.28q0 4.56 2.22 5.94 2.22 1.38 4.86 1.38l-2.28 8.4a17.316 17.316 0 0 1-8.334-1.792 11.34 11.34 0 0 1-5.586-7.568q-2.76 3.84-7.5 7.02a20.403 20.403 0 0 1-10.71 3.152 32.079 32.079 0 0 1-1.35.028q-7.8 0-14.16-3.96-6.36-3.96-10.14-11.22a35.53 35.53 0 0 1-3.747-15.278 49.391 49.391 0 0 1-.033-1.822q0-9.36 3.78-16.8 3.78-7.44 10.44-11.82a26.654 26.654 0 0 1 .418-.269 27.285 27.285 0 0 1 14.882-4.111q5.4 0 9.78 1.86 4.38 1.86 7.62 4.62zm-.96 41.4V39.36q-3.24-2.28-7.14-3.66-3.9-1.38-8.22-1.38-5.76 0-10.14 2.94-4.38 2.94-6.9 8.16-2.52 5.22-2.52 12.18 0 6.72 2.52 11.94 2.52 5.22 6.96 8.16 4.44 2.94 9.96 2.94 4.56 0 8.64-2.22 4.08-2.22 6.84-5.58zm31.68-3.6V0h10.8v68.16a18.154 18.154 0 0 0 1.262 7.289 9.141 9.141 0 0 0 1.438 2.311q2.7 3.12 7.5 3.12 2.28 0 4.5-.54 2.22-.54 3.78-1.26l2.64 8.76q-2.16.96-5.34 1.68-3.18.72-7.02.72-5.52 0-9.96-2.1-4.44-2.1-7.02-6.78a22.669 22.669 0 0 1-2.489-9.427 38.652 38.652 0 0 1-.091-2.693zM232.92 88.8h-10.8V26.4h10.8v62.4zm-5.4-73.08q-3.12 0-5.34-2.28-2.22-2.28-2.22-5.28 0-3.48 2.04-5.52Q224.04.6 227.52.6q3.12 0 5.34 2.22 2.22 2.22 2.22 5.34 0 3.36-2.04 5.46-2.04 2.1-5.52 2.1z" stroke="#000" stroke-width=".5"/></svg>